<?xml version="1.0" standalone="no"?>
<!DOCTYPE svg PUBLIC "-//W3C//DTD SVG 20010904//EN"
 "http://www.w3.org/TR/2001/REC-SVG-20010904/DTD/svg10.dtd">
<svg version="1.0" xmlns="http://www.w3.org/2000/svg"
 width="512.000000pt" height="512.000000pt" viewBox="0 0 512.000000 512.000000"
 preserveAspectRatio="xMidYMid meet">
<metadata>
Created by potrace 1.14, written by Peter Selinger 2001-2017
</metadata>
<g transform="translate(0.000000,512.000000) scale(0.100000,-0.100000)"
fill="#000000" stroke="none">
<path d="M4255 4034 c-49 -21 -175 -101 -195 -123 -17 -20 -108 -87 -174 -129
-94 -60 -247 -189 -301 -254 -22 -26 -50 -59 -62 -73 -13 -13 -23 -28 -23 -34
0 -5 -4 -11 -9 -13 -19 -7 -93 -131 -111 -186 -35 -105 -22 -184 38 -226 21
-14 45 -26 53 -26 8 0 19 -4 24 -9 6 -4 34 -17 63 -27 75 -26 80 -41 35 -100
-21 -27 -50 -62 -65 -79 -15 -16 -28 -33 -28 -37 0 -5 -30 -43 -68 -85 -37
-43 -83 -98 -102 -123 -64 -83 -144 -173 -265 -295 -66 -67 -140 -143 -165
-169 -25 -26 -65 -62 -90 -79 -25 -17 -47 -34 -50 -37 -3 -4 -21 -18 -41 -31
-20 -13 -63 -44 -95 -69 -77 -58 -132 -86 -169 -86 -58 2 -42 30 94 166 150
152 174 191 166 271 -14 127 -22 148 -66 179 -57 41 -195 56 -334 37 -22 -4
-65 -9 -95 -12 -30 -3 -68 -10 -85 -15 -16 -5 -46 -12 -65 -15 -19 -3 -62 -17
-95 -31 -34 -13 -66 -24 -71 -24 -6 0 -34 -11 -62 -25 -29 -14 -54 -25 -57
-25 -11 0 -273 -163 -355 -220 -47 -33 -123 -86 -170 -117 -144 -96 -292 -205
-345 -254 -83 -77 -155 -141 -200 -177 -27 -22 -66 -57 -85 -77 -19 -21 -57
-56 -85 -78 -114 -89 -245 -230 -245 -263 0 -32 34 -15 111 55 46 43 104 91
129 108 25 17 59 44 76 60 93 84 155 134 233 188 48 33 101 71 118 85 17 14
65 52 108 85 43 33 95 75 115 93 21 17 40 32 44 32 4 0 12 5 19 10 7 6 37 27
67 47 30 20 66 47 80 61 14 13 41 34 61 47 20 13 51 37 68 53 18 16 45 36 59
43 15 8 77 44 137 80 101 61 182 103 293 150 52 22 212 66 267 73 107 14 205
4 229 -23 19 -21 28 -129 14 -177 -5 -20 -30 -57 -56 -83 -90 -92 -152 -164
-152 -176 0 -6 -3 -15 -7 -19 -4 -4 -13 -25 -19 -46 -9 -31 -9 -44 4 -70 20
-42 92 -77 157 -77 49 0 191 44 264 82 19 9 104 89 190 177 86 89 197 202 246
253 50 51 110 116 135 146 24 30 49 59 54 64 6 6 27 30 46 55 19 25 46 57 60
71 14 14 52 57 85 94 33 37 88 97 122 134 33 36 72 78 85 93 21 25 72 44 168
63 8 2 15 4 15 5 0 2 16 6 55 13 14 3 25 6 25 7 0 1 7 3 15 5 16 4 151 50 185
64 56 22 221 106 227 115 4 6 8 8 8 4 0 -9 143 65 160 82 19 19 87 63 153 99
42 24 77 47 77 53 0 37 -219 -45 -367 -139 -64 -41 -234 -116 -321 -143 -15
-5 -76 -26 -137 -47 -60 -21 -117 -38 -125 -37 -8 0 -21 2 -28 2 -17 2 -10 51
9 66 18 14 85 104 135 181 21 33 41 62 44 65 20 19 105 140 132 187 17 32 34
60 38 63 16 15 130 205 135 225 8 38 19 71 25 80 5 6 18 42 30 82 19 63 20 75
8 100 -18 39 -73 41 -153 7z m75 -90 c0 -11 -54 -119 -63 -125 -5 -3 -9 -10
-9 -15 -1 -18 -32 -74 -40 -74 -5 0 -6 -4 -3 -10 3 -5 -2 -10 -12 -10 -14 0
-15 -2 -4 -9 11 -7 10 -10 -4 -18 -9 -5 -17 -14 -17 -19 -1 -18 -21 -53 -28
-49 -3 2 -14 -13 -23 -33 -17 -38 -42 -71 -112 -146 -22 -24 -56 -69 -75 -100
-19 -31 -59 -91 -88 -133 -30 -42 -67 -101 -84 -132 -49 -94 -81 -106 -154
-60 -47 28 -53 40 -57 99 -5 70 8 129 41 178 61 90 274 342 284 336 6 -4 8 -3
5 3 -3 5 29 36 71 68 42 33 100 80 127 106 54 51 145 125 185 150 23 15 60 10
60 -7z"/>
</g>
</svg>
